<?xml version="1.0" encoding="UTF-8"?>
<svg width="924px" height="724px" viewBox="0 0 924 724" version="1.1" xmlns="http://www.w3.org/2000/svg" xmlns:xlink="http://www.w3.org/1999/xlink">
    <!-- Generator: Sketch 52.6 (67491) - http://www.bohemiancoding.com/sketch -->
    <title>Color logo - no background Copy 2</title>
    <desc>Created with Sketch.</desc>
    <defs>
        <linearGradient x1="0%" y1="0%" x2="100%" y2="0%" id="linearGradient-1">
            <stop stop-color="#B88746" offset="0%"></stop>
            <stop stop-color="#FDF5A6" offset="100%"></stop>
        </linearGradient>
    </defs>
    <g id="Page-1" stroke="none" stroke-width="1" fill="none" fill-rule="evenodd">
        <g id="Desktop-HD-Copy-4" transform="translate(-259.000000, -120.000000)" fill="url(#linearGradient-1)" fill-rule="nonzero">
            <g id="Color-logo---no-background-Copy-2" transform="translate(259.000000, 120.000000)">
                <g id="SvgjsG1105" transform="translate(325.500000, 0.502525)">
                    <g id="Group">
                        <path d="M120.057773,272.719588 C183.507098,272.719588 235.54789,223.096116 239.509863,160.6198 L265.34934,160.6198 C269.572808,160.6198 272.993544,157.205145 272.993544,152.981677 C272.993544,68.6491404 204.384228,0.0337438424 120.051692,0.0337438424 C115.828223,0.0337438424 112.407488,3.45447951 112.407488,7.67794782 L112.407488,33.5235062 C49.9402934,37.4824376 0.313780653,89.5293109 0.313780653,152.981677 C0.313780653,219.009477 54.0299729,272.719588 120.057773,272.719588 Z M257.504452,145.343554 L232.139317,145.343554 L127.701977,145.343554 L127.701977,40.8849294 C127.701977,40.8545228 127.689814,40.8241163 127.689814,40.7906691 L127.689814,15.5197943 C197.530594,19.3631809 253.664107,75.496693 257.504452,145.343554 Z M112.407488,48.8088735 L112.407488,152.981677 C112.407488,157.205145 115.828223,160.6198 120.051692,160.6198 L120.057773,160.6198 L224.218414,160.6198 C220.299011,214.667423 175.081446,257.440302 120.057773,257.440302 C62.4525843,257.440302 15.5961073,210.583825 15.5961073,152.981677 C15.5961073,97.9580036 58.3659454,52.7343577 112.407488,48.8088735 Z" id="Shape"></path>
                    </g>
                </g>
                <g id="SvgjsG1106" transform="translate(0.500000, 303.502525)">
                    <path d="M149.107384,88.9801843 C156.650305,88.9801843 163.721794,90.3979263 170.32185,93.2334101 C176.921905,96.068894 182.646444,99.9170507 187.495464,104.77788 C192.344485,109.63871 196.183293,115.377189 199.011888,121.993318 C201.840484,128.609447 203.254781,135.698157 203.254781,143.259447 L203.254781,190.652535 L203.254781,290.704608 L189.919975,290.704608 L189.919975,190.652535 L189.919975,143.259447 C189.919975,137.588479 188.842414,132.255069 186.687294,127.259217 C184.532174,122.263364 181.636231,117.942627 177.999466,114.297005 C174.3627,110.651382 170.05246,107.748387 165.068744,105.588018 C160.085028,103.42765 154.764575,102.347465 149.107384,102.347465 C143.450194,102.347465 138.197088,103.42765 133.348067,105.588018 C128.499047,107.748387 124.188806,110.651382 120.417346,114.297005 C116.645885,117.942627 113.682595,122.263364 111.527474,127.259217 C109.372354,132.255069 108.294794,137.588479 108.294794,143.259447 L108.294794,190.652535 L108.294794,290.704608 L94.9599873,290.704608 L94.9599873,190.652535 L94.9599873,143.259447 C94.9599873,137.588479 93.8824272,132.255069 91.7273069,127.259217 C89.5721866,122.263364 86.6762437,117.942627 83.0394783,114.297005 C79.4027128,110.651382 75.0924722,107.748387 70.1087566,105.588018 C65.1250409,103.42765 59.8045877,102.347465 54.147397,102.347465 C48.4902063,102.347465 43.1697531,103.42765 38.1860374,105.588018 C33.2023218,107.748387 28.8920812,110.651382 25.2553158,114.297005 C21.6185503,117.942627 18.7226074,122.263364 16.5674871,127.259217 C14.4123669,132.255069 13.3348067,137.588479 13.3348067,143.259447 L13.3348067,190.652535 L13.3348067,290.704608 L0,290.704608 L0,190.652535 L0,143.259447 L0,91.00553 L13.3348067,91.00553 L13.3348067,107.613364 C18.4532174,101.67235 24.5144932,97.0815668 31.5186341,93.8410138 C38.522775,90.6004608 46.065696,88.9801843 54.147397,88.9801843 C64.3842183,88.9801843 73.7455221,91.5456221 82.2313082,96.6764977 C90.7170943,101.807373 97.2498026,108.558525 101.829433,116.929954 C106.409064,108.558525 112.874425,101.807373 121.225516,96.6764977 C129.576607,91.5456221 138.870563,88.9801843 149.107384,88.9801843 Z M288.920812,88.9801843 C296.463733,88.9801843 303.333179,90.3979263 309.52915,93.2334101 C315.725121,96.068894 321.045574,99.9170507 325.49051,104.77788 C329.935445,109.63871 333.437516,115.377189 335.996721,121.993318 C338.555926,128.609447 339.835529,135.698157 339.835529,143.259447 L339.835529,190.652535 L339.835529,238.450691 L339.835529,290.704608 L326.500722,290.704608 L326.500722,274.096774 C321.382312,279.767742 315.321036,284.291014 308.316895,287.66659 C301.312754,291.042166 293.769833,292.729954 285.688132,292.729954 C278.145211,292.729954 271.073723,291.312212 264.473667,288.476728 C257.873611,285.641244 252.149073,281.793088 247.300052,276.932258 C242.451031,272.071429 238.612223,266.332949 235.783628,259.71682 C232.955033,253.100691 231.540735,246.011982 231.540735,238.450691 L231.540735,227.108756 C231.540735,210.365899 241.777556,198.213825 262.251199,190.652535 C264.675709,189.57235 268.783907,187.952074 274.575793,185.791705 C280.367679,183.631336 286.56365,181.268433 293.163705,178.702995 C299.763761,176.137558 306.161775,173.707143 312.357745,171.411751 C318.553716,169.116359 323.268042,167.293548 326.500722,165.943318 L326.500722,143.259447 C326.500722,131.917512 323.065999,122.263364 316.196553,114.297005 C309.327108,106.330645 300.235194,102.347465 288.920812,102.347465 C283.263622,102.347465 278.010516,103.42765 273.161495,105.588018 C268.312475,107.748387 264.002234,110.651382 260.230774,114.297005 C256.459313,117.942627 253.496023,122.263364 251.340903,127.259217 C249.185782,132.255069 248.108222,137.588479 248.108222,143.259447 L234.773415,143.259447 C234.773415,135.698157 236.187713,128.609447 239.016308,121.993318 C241.844904,115.377189 245.683712,109.63871 250.532732,104.77788 C255.381753,99.9170507 261.106291,96.068894 267.706347,93.2334101 C274.306403,90.3979263 281.377891,88.9801843 288.920812,88.9801843 Z M326.500722,190.652535 L326.500722,180.525806 C322.459872,182.146083 317.476156,184.036406 311.549575,186.196774 C305.622995,188.357143 299.696414,190.585023 293.769833,192.880415 C287.843252,195.175806 282.455452,197.268664 277.606431,199.158986 C272.75741,201.049309 269.25534,202.399539 267.10022,203.209677 C261.981809,205.1 256.998093,207.935484 252.149073,211.716129 C247.300052,215.496774 244.875542,220.62765 244.875542,227.108756 L244.875542,238.450691 C244.875542,244.121659 245.953102,249.455069 248.108222,254.450922 C250.263342,259.446774 253.159285,263.767512 256.796051,267.413134 C260.432816,271.058756 264.743057,273.961751 269.726772,276.12212 C274.710488,278.282488 280.030941,279.362673 285.688132,279.362673 C291.345323,279.362673 296.665776,278.282488 301.649492,276.12212 C306.633207,273.961751 310.943448,271.058756 314.580213,267.413134 C318.216979,263.767512 321.112922,259.446774 323.268042,254.450922 C325.423162,249.455069 326.500722,244.121659 326.500722,238.450691 L326.500722,190.652535 Z M422.26888,88.9801843 C429.811801,88.9801843 436.883289,90.3979263 443.483345,93.2334101 C450.083401,96.068894 455.807939,99.9170507 460.65696,104.77788 C465.50598,109.63871 469.344788,115.377189 472.173384,121.993318 C475.001979,128.609447 476.416277,135.698157 476.416277,143.259447 L476.416277,190.652535 L476.416277,290.704608 L463.08147,290.704608 L463.08147,190.652535 L463.08147,143.259447 C463.08147,137.588479 462.00391,132.255069 459.84879,127.259217 C457.693669,122.263364 454.797726,117.942627 451.160961,114.297005 C447.524195,110.651382 443.213955,107.748387 438.230239,105.588018 C433.246524,103.42765 427.92607,102.347465 422.26888,102.347465 C416.611689,102.347465 411.291236,103.42765 406.30752,105.588018 C401.323805,107.748387 397.013564,110.651382 393.376798,114.297005 C389.740033,117.942627 386.84409,122.263364 384.68897,127.259217 C382.53385,132.255069 381.456289,137.588479 381.456289,143.259447 L381.456289,190.652535 L381.456289,290.704608 L368.121483,290.704608 L368.121483,190.652535 L368.121483,143.259447 L368.121483,91.00553 L381.456289,91.00553 L381.456289,107.613364 C386.5747,101.67235 392.635976,97.0815668 399.640117,93.8410138 C406.644258,90.6004608 414.187179,88.9801843 422.26888,88.9801843 Z M612.997024,91.00553 L612.997024,190.652535 L612.997024,238.450691 L612.997024,290.704608 L599.662218,290.704608 L599.662218,274.096774 C594.543807,279.767742 588.482531,284.291014 581.47839,287.66659 C574.474249,291.042166 566.931328,292.729954 558.849627,292.729954 C551.306706,292.729954 544.235218,291.312212 537.635162,288.476728 C531.035106,285.641244 525.310568,281.793088 520.461547,276.932258 C515.612527,272.071429 511.773719,266.332949 508.945123,259.71682 C506.116528,253.100691 504.70223,246.011982 504.70223,238.450691 L504.70223,190.652535 L504.70223,91.00553 L518.037037,91.00553 L518.037037,190.652535 L518.037037,238.450691 C518.037037,244.121659 519.114597,249.455069 521.269718,254.450922 C523.424838,259.446774 526.320781,263.767512 529.957546,267.413134 C533.594312,271.058756 537.904552,273.961751 542.888268,276.12212 C547.871983,278.282488 553.192437,279.362673 558.849627,279.362673 C564.506818,279.362673 569.827271,278.282488 574.810987,276.12212 C579.794703,273.961751 584.104943,271.058756 587.741709,267.413134 C591.378474,263.767512 594.274417,259.446774 596.429537,254.450922 C598.584658,249.455069 599.662218,244.121659 599.662218,238.450691 L599.662218,190.652535 L599.662218,91.00553 L612.997024,91.00553 Z M743.112411,91.00553 L757.255388,91.00553 L704.724331,290.704608 L699.471226,290.704608 L690.98544,290.704608 L685.732334,290.704608 L633.201277,91.00553 L646.940169,91.00553 L695.02629,274.501843 L743.112411,91.00553 Z M851.00312,179.715668 C848.57861,180.525806 844.537759,182.078571 838.880569,184.373963 C833.223378,186.669355 827.094755,189.032258 820.494699,191.462673 C813.894643,193.893088 807.49663,196.323502 801.300659,198.753917 C795.104688,201.184332 790.255667,202.939631 786.753597,204.019816 L786.753597,238.450691 C786.753597,244.121659 787.831157,249.455069 789.986277,254.450922 C792.141398,259.446774 795.037341,263.767512 798.674106,267.413134 C802.310871,271.058756 806.621112,273.961751 811.604828,276.12212 C816.588543,278.282488 821.908997,279.362673 827.566187,279.362673 C833.223378,279.362673 838.543831,278.282488 843.527547,276.12212 C848.511262,273.961751 852.821503,271.058756 856.458268,267.413134 C860.095034,263.767512 862.990977,259.446774 865.146097,254.450922 C867.301217,249.455069 868.378778,244.121659 868.378778,238.450691 L881.713584,238.450691 C881.713584,246.011982 880.299287,253.100691 877.470691,259.71682 C874.642096,266.332949 870.803288,272.071429 865.954267,276.932258 C861.105247,281.793088 855.380708,285.641244 848.780652,288.476728 C842.180597,291.312212 835.109108,292.729954 827.566187,292.729954 C820.023266,292.729954 812.951778,291.312212 806.351722,288.476728 C799.751666,285.641244 794.027128,281.793088 789.178107,276.932258 C784.329087,272.071429 780.490279,266.332949 777.661683,259.71682 C774.833088,253.100691 773.41879,246.011982 773.41879,238.450691 L773.41879,143.259447 C773.41879,135.698157 774.833088,128.609447 777.661683,121.993318 C780.490279,115.377189 784.329087,109.63871 789.178107,104.77788 C794.027128,99.9170507 799.751666,96.068894 806.351722,93.2334101 C812.951778,90.3979263 820.023266,88.9801843 827.566187,88.9801843 C835.109108,88.9801843 842.180597,90.3979263 848.780652,93.2334101 C855.380708,96.068894 861.105247,99.9170507 865.954267,104.77788 C870.803288,109.63871 874.642096,115.377189 877.470691,121.993318 C880.299287,128.609447 881.713584,135.563134 881.713584,142.854378 L881.713584,143.259447 C881.713584,160.002304 871.476763,172.154378 851.00312,179.715668 Z M827.566187,102.347465 C821.908997,102.347465 816.588543,103.42765 811.604828,105.588018 C806.621112,107.748387 802.310871,110.651382 798.674106,114.297005 C795.037341,117.942627 792.141398,122.263364 789.986277,127.259217 C787.831157,132.255069 786.753597,137.588479 786.753597,143.259447 L786.753597,189.842396 C790.794447,188.22212 795.778163,186.264286 801.704744,183.968894 C807.631325,181.673502 813.557905,179.445622 819.484486,177.285253 C825.411067,175.124885 830.866215,173.099539 835.849931,171.209217 C840.833646,169.318894 844.403064,167.968664 846.558185,167.158525 C851.407205,165.268203 856.256226,162.432719 861.105247,158.652074 C865.954267,154.871429 868.378778,149.60553 868.378778,142.854378 C868.378778,137.18341 867.301217,131.917512 865.146097,127.056682 C862.990977,122.195853 860.095034,117.942627 856.458268,114.297005 C852.821503,110.651382 848.511262,107.748387 843.527547,105.588018 C838.543831,103.42765 833.223378,102.347465 827.566187,102.347465 Z M869.186948,45.637788 L865.146097,58.6 L787.561767,34.2958525 L791.602618,21.3336406 L869.186948,45.637788 Z M923.334345,290.704608 L909.999538,290.704608 L909.999538,0.270046083 L923.334345,0.270046083 L923.334345,290.704608 Z" id="Shape"></path>
                </g>
                <g id="SvgjsG1107" transform="translate(129.500000, 669.502525)">
                    <path d="M22.3348178,54 L0,54 L0,0.663414634 L22.3348178,0.663414634 C27.0869067,0.663414634 34.7852907,0.663414634 40.2977138,3.10487805 C41.533257,3.76219512 42.1985494,4.13780488 42.6737583,4.60731707 C43.1489672,5.26463415 43.5291343,5.82804878 44.0043432,7.04878049 C46.4754294,13.2463415 46.2853459,22.4487805 46.2853459,27.3317073 C46.2853459,32.3085366 46.4754294,41.0414634 44.0043432,47.6146341 C43.6241761,48.647561 43.3390507,49.3987805 42.6737583,50.0560976 C42.1985494,50.5256098 41.533257,50.9012195 40.2977138,51.5585366 C34.6902489,53.8121951 27.5621156,54 22.3348178,54 Z M6.08267379,49.304878 L22.3348178,49.304878 C27.372032,49.304878 32.6943716,48.647561 35.6406667,47.2390244 C36.6861263,46.7695122 37.1613352,46.3939024 37.5415023,45.9243902 C37.9216694,45.454878 38.2067947,44.8914634 38.4919201,44.0463415 C39.9175467,39.6329268 40.3927556,33.5292683 40.3927556,27.2378049 C40.3927556,20.9463415 39.6324214,14.7487805 38.3968783,10.6170732 C38.0167112,9.4902439 37.8266276,8.92682927 37.5415023,8.55121951 C37.1613352,8.08170732 36.6861263,7.70609756 35.6406667,7.23658537 C32.6943716,5.73414634 27.372032,5.07682927 22.3348178,5.07682927 L6.08267379,5.07682927 L6.08267379,49.304878 Z M88.3888535,30.2426829 L88.3888535,30.5243902 C89.434313,30.8060976 90.289689,30.9 91.4301904,31.2756098 C92.5706917,31.5573171 92.9508588,31.745122 93.6161513,32.1207317 C94.0913602,32.4963415 94.566569,32.8719512 94.9467362,33.5292683 C96.5624464,36.4402439 97.132697,39.7268293 97.132697,43.3890244 L97.132697,54 L91.0500233,54 L91.0500233,43.3890244 C91.0500233,40.6658537 90.7648979,37.8487805 90.0996055,35.8768293 C90.0045637,35.4073171 89.7194384,35.0317073 89.434313,34.75 C89.3392713,34.5621951 89.0541459,34.3743902 88.578937,34.0926829 C86.6781015,33.3414634 84.2070152,32.9658537 81.6408872,32.9658537 L61.0168214,32.9658537 L61.0168214,54 L54.9341476,54 L54.9341476,0.663414634 L77.9342579,0.663414634 C83.1615557,0.663414634 88.1987699,1.03902439 92.000441,1.88414634 C92.855817,2.16585366 93.3310259,2.2597561 93.9963184,2.63536585 C94.4715273,3.01097561 94.7566526,3.19878049 95.1368197,3.85609756 C97.4178224,7.04878049 97.132697,13.4341463 97.132697,15.8756098 C97.132697,18.504878 97.3227806,23.4817073 95.1368197,27.1439024 C94.7566526,27.895122 94.4715273,28.2707317 93.9963184,28.552439 C93.6161513,28.8341463 92.855817,29.1158537 92.000441,29.397561 C90.7648979,29.7731707 89.5293548,29.9609756 88.3888535,30.2426829 Z M89.6243966,8.45731707 C89.3392713,7.98780488 89.2442295,7.70609756 88.9591041,7.42439024 C88.578937,7.14268293 88.1037281,6.95487805 87.5334775,6.76707317 C85.2524748,6.01585366 82.0210544,5.73414634 78.6945921,5.73414634 L61.0168214,5.73414634 L61.0168214,28.1768293 L78.6945921,28.1768293 C82.0210544,28.1768293 85.2524748,27.895122 87.6285193,27.05 C88.2938117,26.8621951 88.6739788,26.6743902 88.9591041,26.4865854 C89.2442295,26.204878 89.3392713,26.0170732 89.7194384,25.3597561 C90.7648979,22.8243902 91.0500233,19.2560976 91.0500233,16.9085366 C91.0500233,14.654878 90.7648979,11.1804878 89.6243966,8.45731707 Z M106.066624,0.663414634 L112.149298,0.663414634 L112.149298,54 L106.066624,54 L106.066624,0.663414634 Z M162.806566,49.3987805 L162.996649,49.3987805 L162.996649,45.454878 L162.996649,0.663414634 L169.079323,0.663414634 L169.079323,54 L158.529686,54 L130.207236,9.02073171 C129.35186,7.8 128.686567,6.48536585 127.926233,5.07682927 L127.641108,5.07682927 C127.641108,6.48536585 127.73615,7.89390244 127.73615,9.02073171 L127.73615,54 L121.653476,54 L121.653476,0.663414634 L131.347737,0.663414634 L160.335479,45.454878 C161.190855,46.8634146 161.95119,48.1780488 162.806566,49.3987805 Z M184.666175,0.663414634 L184.666175,22.9182927 L184.9513,22.9182927 L208.426619,0.663414634 L216.790295,0.663414634 L189.513305,25.6414634 L219.16634,54 L210.422496,54 L184.9513,28.7402439 L184.666175,28.7402439 L184.666175,54 L178.583501,54 L178.583501,0.663414634 L184.666175,0.663414634 Z M264.216143,36.1585366 L243.78216,36.1585366 L243.78216,32.1207317 L264.216143,32.1207317 L264.216143,36.1585366 Z M300.807227,23.9512195 L328.939593,23.9512195 L328.939593,28.7402439 L300.807227,28.7402439 L300.807227,49.304878 L331.695805,49.304878 L331.695805,54 L294.724553,54 L294.724553,0.663414634 L330.460262,0.663414634 L330.460262,5.07682927 L300.807227,5.07682927 L300.807227,23.9512195 Z M359.828171,0.1 C361.443881,0.1 363.344717,0.475609756 364.865385,1.22682927 C365.340594,1.41463415 365.62572,1.60243902 365.815803,1.7902439 C366.100929,2.07195122 366.291012,2.44756098 366.576137,2.91707317 C367.051346,4.04390244 367.526555,5.17073171 368.001764,6.39146341 L385.584493,54 L378.931569,54 L374.464605,41.4170732 L345.191737,41.4170732 L340.724774,54 L334.071849,54 L351.654578,6.39146341 C352.129787,5.17073171 352.604996,3.95 353.175247,2.91707317 C353.460372,2.44756098 353.650456,2.07195122 353.935581,1.7902439 C354.125665,1.60243902 354.41079,1.41463415 354.790957,1.22682927 C356.216584,0.475609756 358.022377,0.1 359.828171,0.1 Z M357.737252,6.01585366 L346.997531,36.4402439 L372.658811,36.4402439 L361.91909,6.01585366 C361.824049,5.6402439 361.633965,5.26463415 361.538923,4.98292683 L361.34884,4.79512195 C361.253798,4.70121951 361.158756,4.70121951 361.063714,4.60731707 C360.683547,4.51341463 360.208338,4.4195122 359.828171,4.4195122 C359.448004,4.4195122 358.877753,4.60731707 358.592628,4.70121951 C358.497586,4.79512195 358.402545,4.79512195 358.307503,4.88902439 L358.117419,5.07682927 C358.022377,5.35853659 357.832294,5.6402439 357.737252,6.01585366 Z M411.05569,5.45243902 L411.05569,54 L404.877974,54 L404.877974,5.45243902 L386.439869,5.45243902 L386.439869,0.663414634 L429.398753,0.663414634 L429.398753,5.45243902 L411.05569,5.45243902 Z M476.349391,36.1585366 L455.915409,36.1585366 L455.915409,32.1207317 L476.349391,32.1207317 L476.349391,36.1585366 Z M540.312508,30.2426829 L540.312508,30.5243902 C541.357967,30.8060976 542.213343,30.9 543.353844,31.2756098 C544.494346,31.5573171 544.874513,31.745122 545.539805,32.1207317 C546.015014,32.4963415 546.490223,32.8719512 546.87039,33.5292683 C548.4861,36.4402439 549.056351,39.7268293 549.056351,43.3890244 L549.056351,54 L542.973677,54 L542.973677,43.3890244 C542.973677,40.6658537 542.688552,37.8487805 542.02326,35.8768293 C541.928218,35.4073171 541.643092,35.0317073 541.357967,34.75 C541.262925,34.5621951 540.9778,34.3743902 540.502591,34.0926829 C538.601756,33.3414634 536.130669,32.9658537 533.564541,32.9658537 L512.940475,32.9658537 L512.940475,54 L506.857802,54 L506.857802,0.663414634 L529.857912,0.663414634 C535.08521,0.663414634 540.122424,1.03902439 543.924095,1.88414634 C544.779471,2.16585366 545.25468,2.2597561 545.919972,2.63536585 C546.395181,3.01097561 546.680307,3.19878049 547.060474,3.85609756 C549.341476,7.04878049 549.056351,13.4341463 549.056351,15.8756098 C549.056351,18.504878 549.246435,23.4817073 547.060474,27.1439024 C546.680307,27.895122 546.395181,28.2707317 545.919972,28.552439 C545.539805,28.8341463 544.779471,29.1158537 543.924095,29.397561 C542.688552,29.7731707 541.453009,29.9609756 540.312508,30.2426829 Z M541.548051,8.45731707 C541.262925,7.98780488 541.167884,7.70609756 540.882758,7.42439024 C540.502591,7.14268293 540.027382,6.95487805 539.457132,6.76707317 C537.176129,6.01585366 533.944708,5.73414634 530.618246,5.73414634 L512.940475,5.73414634 L512.940475,28.1768293 L530.618246,28.1768293 C533.944708,28.1768293 537.176129,27.895122 539.552173,27.05 C540.217466,26.8621951 540.597633,26.6743902 540.882758,26.4865854 C541.167884,26.204878 541.262925,26.0170732 541.643092,25.3597561 C542.688552,22.8243902 542.973677,19.2560976 542.973677,16.9085366 C542.973677,14.654878 542.688552,11.1804878 541.548051,8.45731707 Z M557.990278,0.663414634 L564.072952,0.663414634 L564.072952,54 L557.990278,54 L557.990278,0.663414634 Z M595.911948,54 L573.57713,54 L573.57713,0.663414634 L595.911948,0.663414634 C600.664037,0.663414634 608.362421,0.663414634 613.874844,3.10487805 C615.110387,3.76219512 615.775679,4.13780488 616.250888,4.60731707 C616.726097,5.26463415 617.106264,5.82804878 617.581473,7.04878049 C620.052559,13.2463415 619.862476,22.4487805 619.862476,27.3317073 C619.862476,32.3085366 620.052559,41.0414634 617.581473,47.6146341 C617.201306,48.647561 616.916181,49.3987805 616.250888,50.0560976 C615.775679,50.5256098 615.110387,50.9012195 613.874844,51.5585366 C608.267379,53.8121951 601.139245,54 595.911948,54 Z M579.659804,49.304878 L595.911948,49.304878 C600.949162,49.304878 606.271501,48.647561 609.217797,47.2390244 C610.263256,46.7695122 610.738465,46.3939024 611.118632,45.9243902 C611.498799,45.454878 611.783925,44.8914634 612.06905,44.0463415 C613.494677,39.6329268 613.969885,33.5292683 613.969885,27.2378049 C613.969885,20.9463415 613.209551,14.7487805 611.974008,10.6170732 C611.593841,9.4902439 611.403757,8.92682927 611.118632,8.55121951 C610.738465,8.08170732 610.263256,7.70609756 609.217797,7.23658537 C606.271501,5.73414634 600.949162,5.07682927 595.911948,5.07682927 L579.659804,5.07682927 L579.659804,49.304878 Z M634.593951,23.9512195 L662.726318,23.9512195 L662.726318,28.7402439 L634.593951,28.7402439 L634.593951,49.304878 L665.482529,49.304878 L665.482529,54 L628.511277,54 L628.511277,0.663414634 L664.246986,0.663414634 L664.246986,5.07682927 L634.593951,5.07682927 L634.593951,23.9512195 Z" id="Shape"></path>
                </g>
            </g>
        </g>
    </g>
</svg>