<?xml version="1.0" encoding="UTF-8"?>
<svg width="45px" height="75px" viewBox="0 0 45 75" version="1.1" xmlns="http://www.w3.org/2000/svg" xmlns:xlink="http://www.w3.org/1999/xlink">
    <!-- Generator: Sketch 52.6 (67491) - http://www.bohemiancoding.com/sketch -->
    <title>Group 2</title>
    <desc>Created with Sketch.</desc>
    <defs>
        <linearGradient x1="50%" y1="31.8435368%" x2="50%" y2="131.843537%" id="linearGradient-1">
            <stop stop-color="#B88746" offset="0%"></stop>
            <stop stop-color="#FDF5A6" offset="100%"></stop>
        </linearGradient>
        <linearGradient x1="0%" y1="0%" x2="100%" y2="0%" id="linearGradient-2">
            <stop stop-color="#B88746" offset="0%"></stop>
            <stop stop-color="#FDF5A6" offset="100%"></stop>
        </linearGradient>
    </defs>
    <g id="Page-1" stroke="none" stroke-width="1" fill="none" fill-rule="evenodd">
        <g id="Group-2" fill-rule="nonzero">
            <path d="M0,22.7459016 C0,10.183687 10.0735931,0 22.5,0 C34.9264069,0 45,10.183687 45,22.7459016 C45,26.1884498 44.2434946,29.4523756 42.889376,32.3770503 L22.5,75 L2.11061817,32.3770492 C0.756505412,29.4523756 0,26.1884498 0,22.7459016 Z" id="Path" fill="url(#linearGradient-1)"></path>
            <g id="SvgjsG1105-Copy-6" transform="translate(8.000000, 4.000000)" fill="#0E1116">
                <g id="Group">
                    <path d="M14.8976799,33.8411168 C22.7709538,33.8411168 29.2285703,27.6834596 29.7202019,19.9309241 L32.9265604,19.9309241 C33.4506404,19.9309241 33.8751112,19.5072078 33.8751112,18.9831278 C33.8751112,8.51850647 25.3615466,0.00418719212 14.8969252,0.00418719212 C14.3728452,0.00418719212 13.9483744,0.428658041 13.9483744,0.95273805 L13.9483744,4.15985113 C6.19697071,4.6511054 0.0389362854,11.1094765 0.0389362854,18.9831278 C0.0389362854,27.1763585 6.7044492,33.8411168 14.8976799,33.8411168 Z M31.9531072,18.0353316 L28.8056087,18.0353316 L15.8462307,18.0353316 L15.8462307,5.0733124 C15.8462307,5.06953933 15.8447215,5.06576625 15.8447215,5.06161587 L15.8447215,1.92581389 C24.5110957,2.40273047 31.476568,9.36820278 31.9531072,18.0353316 Z M13.9483744,6.05657554 L13.9483744,18.9831278 C13.9483744,19.5072078 14.3728452,19.9309241 14.8969252,19.9309241 L14.8976799,19.9309241 L27.8227229,19.9309241 C27.3363736,26.6375635 21.725435,31.945147 14.8976799,31.945147 C7.74959075,31.945147 1.93528339,26.1308396 1.93528339,18.9831278 C1.93528339,12.1553727 7.24248958,6.54367942 13.9483744,6.05657554 Z" id="Shape"></path>
                </g>
            </g>
        </g>
    </g>
</svg>